# xmcd
#
# Track frame offsets:
# 150
# 22412
# 42783
# 63961
# 84999
# 108471
# 130662
# 146317
# 164768
# 183464
# 203053
# 224046
# 248133
# 269750
# 293286
# 316064
# 330375
#
# Disc length: 4569 seconds
#
#
# Revision: 0
# Processed by: cddbd v1.5.2PL0 Copyright (c) Steve Scherf et al.
# Submitted via: FreeRIP 2.96 
#
DISCID=fa11d711
DTITLE=Andreas Franz - Tödliches Lachen CD5v6
DYEAR=2006
DGENRE=Speech
TTITLE0=080 Samstag, 6.15 Uhr
TTITLE1=081 Ich konnte nicht schlafen
TTITLE2=082 Durant und Hellmer fuhren schweigend
TTITLE3=083 Samstag, 9.50 Uhr
TTITLE4=084 Bock ging näher hin
TTITLE5=085 Wann fahren wir ins Präsidium ?
TTITLE6=086 Hat sie nie von einem Mann gesprochen ?
TTITLE7=087 Ich denke, sie haben sich so prima verstanden ?
TTITLE8=088 Samstag, 9.35 Uhr
TTITLE9=089 Samstag, 12.35 Uhr, Polizeipräsidium, Lagebesprechung
TTITLE10=090 Sie druckte die Mail wortlos aus
TTITLE11=091 Ich würde Nichts ausschliessen
TTITLE12=092 Sie mögen Recht haben
TTITLE13=093 Nach den sehr interessanten Ausführungen
TTITLE14=094 Was hat es mit dem Rätsel auf sich ?
TTITLE15=095 Du kannst deinen Spott wohl nie ablegen ?
TTITLE16=096 Mike 1 - Wir heissen beide Michael
EXTD=gelesen von Julia Fischer
EXTT0=
EXTT1=
EXTT2=
EXTT3=
EXTT4=
EXTT5=
EXTT6=
EXTT7=
EXTT8=
EXTT9=
EXTT10=
EXTT11=
EXTT12=
EXTT13=
EXTT14=
EXTT15=
EXTT16=
PLAYORDER=
